<?xml version="1.0" encoding="UTF-8" standalone="no"?>
<svg
   xmlns:dc="http://purl.org/dc/elements/1.1/"
   xmlns:cc="http://creativecommons.org/ns#"
   xmlns:rdf="http://www.w3.org/1999/02/22-rdf-syntax-ns#"
   xmlns:svg="http://www.w3.org/2000/svg"
   xmlns="http://www.w3.org/2000/svg"
   xmlns:sodipodi="http://sodipodi.sourceforge.net/DTD/sodipodi-0.dtd"
   xmlns:inkscape="http://www.inkscape.org/namespaces/inkscape"
   height="2160"
   width="3840"
   version="1.1"
   viewBox="0 0 3840 2160"
   id="svg3805"
   sodipodi:docname="Background.svg"
   inkscape:version="0.92.4 5da689c313, 2019-01-14">
  <metadata
     id="metadata3811">
    <rdf:RDF>
      <cc:Work
         rdf:about="">
        <dc:format>image/svg+xml</dc:format>
        <dc:type
           rdf:resource="http://purl.org/dc/dcmitype/StillImage" />
        <dc:title></dc:title>
      </cc:Work>
    </rdf:RDF>
  </metadata>
  <defs
     id="defs3809" />
  <sodipodi:namedview
     pagecolor="#ffffff"
     bordercolor="#666666"
     borderopacity="1"
     objecttolerance="10"
     gridtolerance="10"
     guidetolerance="10"
     inkscape:pageopacity="0"
     inkscape:pageshadow="2"
     inkscape:window-width="1876"
     inkscape:window-height="981"
     id="namedview3807"
     showgrid="false"
     showguides="true"
     inkscape:guide-bbox="true"
     inkscape:zoom="0.53896955"
     inkscape:cx="1795.709"
     inkscape:cy="878.88949"
     inkscape:window-x="1942"
     inkscape:window-y="77"
     inkscape:window-maximized="1"
     inkscape:current-layer="layer2">
    <sodipodi:guide
       position="1920,1527.1221"
       orientation="1,0"
       id="guide3814"
       inkscape:locked="false"
       inkscape:label=""
       inkscape:color="rgb(0,0,255)" />
    <sodipodi:guide
       position="-619.24537,1080"
       orientation="0,1"
       id="guide3816"
       inkscape:locked="false"
       inkscape:label=""
       inkscape:color="rgb(0,0,255)" />
  </sodipodi:namedview>
  <g
     inkscape:groupmode="layer"
     id="layer1"
     inkscape:label="Background"
     transform="translate(0,1894)">
    <rect
       id="rect3840"
       width="3867.6597"
       height="2183.1023"
       x="-5.2478423"
       y="-1901.3588"
       style="fill:#333333" />
  </g>
  <g
     inkscape:groupmode="layer"
     id="layer2"
     inkscape:label="Main"
     style="display:inline">
    <path
       d="m 1916.6435,609.53292 c -20.9601,51.35106 -33.6031,84.98521 -56.9293,134.80907 14.316,15.15724 31.8584,32.72118 60.3469,52.65601 -30.6395,-12.60955 -51.504,-25.17844 -67.1344,-38.31614 -29.8508,62.27564 -76.6705,150.89844 -171.555,321.38024 74.5697,-43.0435 132.4071,-69.5483 186.2772,-79.6818 -2.3182,-9.9423 -3.6088,-20.745 -3.5132,-31.9779 l 0.072,-2.3183 c 1.1711,-47.7756 26.0507,-84.5574 55.4952,-82.0718 29.4446,2.4856 52.3405,43.3303 51.1456,91.1059 -0.2151,8.9863 -1.2189,17.6141 -2.9875,25.6206 53.2726,10.4442 110.5125,36.8773 184.0282,79.3233 -14.5071,-26.696 -27.5086,-50.7153 -39.8648,-73.6352 -19.4783,-15.1046 -39.7453,-34.7503 -81.1875,-56.0211 28.4646,7.409 48.9228,15.9173 64.8162,25.4772 C 1969.94,741.8134 1959.7348,710.71501 1916.6435,609.54703 Z m 230.1548,431.77308 v -9.8465 h -3.6567 v -1.3144 h 8.7951 v 1.3144 h -3.6805 v 9.8465 z m 5.9032,0 v -11.1609 h 2.1988 l 2.629,7.9108 c 0.239,0.7409 0.4063,1.2906 0.5258,1.6491 0.1195,-0.4063 0.3346,-0.9799 0.5975,-1.7686 l 2.6529,-7.7913 h 1.9597 v 11.1609 h -1.3861 v -9.3446 l -3.2504,9.3446 h -1.3145 l -3.2026,-9.5121 v 9.5121 z"
       id="path3801"
       inkscape:connector-curvature="0"
       style="fill:#1793d1;stroke-width:2.38997746"
       sodipodi:nodetypes="ccccccccsccccccccccccccccccccccccccccccccc" />
    <text
       xml:space="preserve"
       style="font-style:normal;font-variant:normal;font-weight:normal;font-stretch:normal;font-size:40px;line-height:1.25;font-family:'Noto Sans Limbu';-inkscape-font-specification:'Noto Sans Limbu';letter-spacing:0px;word-spacing:0px;fill:#1793d1;fill-opacity:1;stroke:none"
       x="1708.8164"
       y="1114.4863"
       id="text3844"><tspan
         sodipodi:role="line"
         id="tspan3842"
         x="1708.8164"
         y="1114.4863"
         style="font-style:normal;font-variant:normal;font-weight:normal;font-stretch:normal;font-family:'DejaVu Sans';-inkscape-font-specification:'DejaVu Sans';fill:#1793d1;fill-opacity:1">keep it simple stupid</tspan></text>
  </g>
</svg>
